<svg
  width="36"
  height="36"
  viewBox="0 0 36 36"
  fill="none"
  xmlns="http://www.w3.org/2000/svg"
>
  <defs>
    <linearGradient
      id="toolsKingGradient"
      x1="0"
      y1="0"
      x2="36"
      y2="36"
      gradientUnits="userSpaceOnUse"
    >
      <stop offset="0%" stopColor="#4F46E5" />
      <stop offset="100%" stopColor="#7C3AED" />
    </linearGradient>
  </defs>
  <rect width="36" height="36" rx="8" fill="url(#toolsKingGradient)" />
  <path
    d="M24 12a2 2 0 0 0-2-2h-8a2 2 0 0 0-2 2v2h2v-2h8v2h2v-2zm-4 4h-4v10h4V16zm-6 2H8v8h6v-8zm12 0h-6v8h6v-8z"
    fill="white"
  />
  <path d="M25 22.5a1.5 1.5 0 1 0 0-3 1.5 1.5 0 0 0 0 3z" fill="#FFF5C4" />
</svg> 